<?xml version="1.0" encoding="utf-8"?>
<!-- Generator: Adobe Illustrator 25.4.1, SVG Export Plug-In . SVG Version: 6.00 Build 0)  -->
<svg version="1.1" id="Layer_1" xmlns="http://www.w3.org/2000/svg" xmlns:xlink="http://www.w3.org/1999/xlink" x="0px" y="0px"
	 viewBox="0 0 114.2 99" style="enable-background:new 0 0 114.2 99;" xml:space="preserve">
<style type="text/css">
	.st0{fill:#141B3F;stroke:#F5D109;stroke-miterlimit:10;}
	.st1{fill:#141B3F;}
</style>
<g>
	<path class="st0" d="M12.1,24.1c0,0.2,0.1,0.4,0.2,0.5s0.5,0.2,1.1,0.3v0.6H3.8v-0.6c0.6-0.1,1-0.2,1.1-0.3
		c0.1-0.1,0.2-0.3,0.2-0.5V2.5c0-0.2-0.1-0.4-0.2-0.5C4.8,1.8,4.4,1.7,3.8,1.6V1.1h17c3.4,0,5.9,0.6,7.5,1.9
		c1.5,1.3,2.3,3.2,2.3,5.8c0,2.1-0.6,3.8-1.9,5c-1.3,1.2-2.8,2.1-4.8,2.6l5.5,7.7c0.4,0.6,0.8,0.8,1.3,0.8v0.6h-9.6v-0.6
		c0.7,0,1-0.3,1-0.8c0-0.1-0.1-0.3-0.4-0.6c-0.2-0.4-0.6-0.8-0.9-1.3c-0.4-0.5-0.8-1.1-1.2-1.7s-0.9-1.2-1.3-1.7
		c-0.4-0.6-0.8-1.1-1.1-1.5c-0.3-0.4-0.5-0.7-0.6-0.9h-4.5V24.1z M19.8,11.4c1.4,0,2.3-0.3,2.8-0.8s0.8-1.1,0.8-1.8
		c0-0.7-0.3-1.3-0.8-1.8s-1.4-0.8-2.8-0.8h-7.8v5.1H19.8z"/>
	<path class="st0" d="M47.7,4.8c1.5,0,2.9,0.2,4.4,0.6c1.5,0.4,2.8,1,4,1.9c1.2,0.9,2.2,1.9,2.9,3.3c0.7,1.3,1.1,2.9,1.1,4.7
		c0,1.9-0.4,3.4-1.1,4.8c-0.7,1.3-1.7,2.4-2.9,3.2c-1.2,0.8-2.5,1.4-4,1.8s-2.9,0.6-4.4,0.6c-1.5,0-2.9-0.2-4.4-0.6s-2.8-1-4-1.8
		c-1.2-0.8-2.2-1.9-2.9-3.2s-1.1-2.9-1.1-4.8c0-1.8,0.4-3.4,1.1-4.7c0.7-1.3,1.7-2.4,2.9-3.3c1.2-0.8,2.5-1.5,4-1.9
		C44.7,5,46.2,4.8,47.7,4.8z M47.7,9.7c-0.9,0-1.7,0.1-2.5,0.4s-1.5,0.6-2,1.1c-0.6,0.5-1,1.1-1.4,1.7c-0.3,0.7-0.5,1.5-0.5,2.3
		s0.2,1.6,0.5,2.3c0.3,0.7,0.8,1.3,1.4,1.7c0.6,0.5,1.3,0.9,2,1.1s1.6,0.4,2.5,0.4c0.9,0,1.7-0.1,2.5-0.4c0.8-0.3,1.4-0.6,2-1.1
		c0.6-0.5,1-1.1,1.4-1.7s0.5-1.5,0.5-2.3s-0.2-1.6-0.5-2.3s-0.8-1.3-1.4-1.7c-0.6-0.5-1.3-0.9-2-1.1C49.4,9.8,48.5,9.7,47.7,9.7z"/>
	<path class="st0" d="M65.8,6.5c0-0.3-0.1-0.6-0.4-0.6s-0.5-0.2-0.9-0.2V5.1h8.7v0.6c-0.3,0-0.6,0.1-0.9,0.2C72.1,5.9,72,6.1,72,6.5
		v14.3h12.7c0.2,0,0.4-0.1,0.6-0.2s0.3-0.5,0.3-1h0.6v6.9h-0.6c0-0.5-0.1-0.8-0.3-0.9s-0.4-0.1-0.6-0.1H64.6v-0.6
		c0.3,0,0.6-0.1,0.9-0.2s0.4-0.3,0.4-0.6V6.5z"/>
	<path class="st0" d="M91.6,6.5c0-0.3-0.1-0.6-0.4-0.6s-0.5-0.2-0.9-0.2V5.1H99v0.6c-0.3,0-0.6,0.1-0.9,0.2
		c-0.2,0.1-0.3,0.3-0.3,0.6v14.3h12.7c0.2,0,0.4-0.1,0.6-0.2s0.3-0.5,0.3-1h0.6v6.9h-0.6c0-0.5-0.1-0.8-0.3-0.9s-0.4-0.1-0.6-0.1
		H90.3v-0.6c0.3,0,0.6-0.1,0.9-0.2s0.4-0.3,0.4-0.6V6.5z"/>
</g>
<g>
	<path class="st0" d="M19.2,50.2c0-0.1,0-0.1,0.1-0.2c0-0.1,0-0.2,0-0.3c0-0.2-0.2-0.4-0.5-0.6c-0.3-0.2-0.8-0.4-1.3-0.5
		c-0.5-0.2-1.2-0.3-1.9-0.4c-0.7-0.1-1.4-0.2-2.2-0.2c-0.7,0-1.5,0.1-2.3,0.3c-0.8,0.2-1.5,0.4-2.2,0.8c-0.7,0.4-1.2,0.9-1.6,1.5
		C7,51.3,6.7,52.1,6.7,53s0.2,1.7,0.6,2.3c0.4,0.6,1,1.1,1.6,1.5c0.7,0.4,1.4,0.7,2.2,0.8c0.8,0.2,1.5,0.3,2.3,0.3
		c0.3,0,0.8-0.1,1.5-0.2c0.7-0.1,1.3-0.3,2-0.5c0.7-0.2,1.3-0.4,1.8-0.6s0.8-0.5,0.8-0.8c0-0.1,0-0.2-0.1-0.3s-0.1-0.2-0.1-0.3
		l0.4-0.3l3.7,5.6L22.9,61c0-0.1-0.1-0.2-0.2-0.2c-0.1,0-0.2-0.1-0.3-0.1c-0.2,0-0.5,0.1-1,0.3c-0.5,0.2-1.2,0.4-2,0.6
		c-0.8,0.2-1.7,0.4-2.8,0.6c-1.1,0.2-2.3,0.3-3.6,0.3c-1.4,0-2.9-0.2-4.3-0.6c-1.4-0.4-2.7-1-3.8-1.8c-1.1-0.8-2-1.8-2.7-3
		c-0.7-1.2-1-2.6-1-4.2s0.3-3,1-4.2c0.7-1.2,1.6-2.2,2.7-3c1.1-0.8,2.4-1.4,3.8-1.8c1.4-0.4,2.8-0.6,4.3-0.6s2.7,0.1,3.7,0.2
		c1,0.2,1.9,0.3,2.6,0.5c0.7,0.2,1.2,0.4,1.6,0.5c0.4,0.1,0.7,0.2,0.9,0.2c0.2,0,0.4-0.1,0.5-0.3l0.4,0.1l-3.2,5.9L19.2,50.2z"/>
	<path class="st0" d="M28.1,47.7c0-0.3-0.1-0.4-0.3-0.5c-0.2-0.1-0.4-0.1-0.7-0.1v-0.4h6.7V47c-0.3,0-0.5,0.1-0.7,0.1
		c-0.2,0.1-0.3,0.2-0.3,0.5v11.1h9.9c0.1,0,0.3-0.1,0.4-0.2c0.1-0.1,0.2-0.4,0.2-0.7h0.4v5.4h-0.4c0-0.4-0.1-0.6-0.2-0.7
		c-0.1-0.1-0.3-0.1-0.4-0.1H27.1V62c0.3,0,0.5-0.1,0.7-0.1s0.3-0.2,0.3-0.5V47.7z"/>
	<path class="st0" d="M56,46.4c1.1,0,2.3,0.2,3.4,0.5c1.1,0.3,2.2,0.8,3.1,1.5s1.7,1.5,2.2,2.5s0.9,2.3,0.9,3.7
		c0,1.4-0.3,2.7-0.9,3.7c-0.6,1-1.3,1.9-2.2,2.5s-2,1.1-3.1,1.4c-1.1,0.3-2.3,0.4-3.4,0.4s-2.3-0.1-3.4-0.4
		c-1.1-0.3-2.2-0.8-3.1-1.4s-1.7-1.5-2.2-2.5c-0.6-1-0.9-2.2-0.9-3.7c0-1.4,0.3-2.6,0.9-3.7s1.3-1.9,2.2-2.5s2-1.1,3.1-1.5
		C53.7,46.5,54.8,46.4,56,46.4z M56,50.2c-0.7,0-1.3,0.1-1.9,0.3c-0.6,0.2-1.1,0.5-1.6,0.9c-0.5,0.4-0.8,0.8-1.1,1.4
		c-0.3,0.5-0.4,1.1-0.4,1.8s0.1,1.3,0.4,1.8c0.3,0.5,0.6,1,1.1,1.4s1,0.7,1.6,0.9c0.6,0.2,1.2,0.3,1.9,0.3c0.7,0,1.3-0.1,1.9-0.3
		c0.6-0.2,1.1-0.5,1.6-0.9s0.8-0.8,1.1-1.4c0.3-0.5,0.4-1.1,0.4-1.8s-0.1-1.3-0.4-1.8c-0.3-0.5-0.6-1-1.1-1.4
		c-0.5-0.4-1-0.7-1.6-0.9C57.3,50.3,56.7,50.2,56,50.2z"/>
	<path class="st0" d="M70.5,47.7c0-0.3-0.1-0.4-0.3-0.5c-0.2-0.1-0.5-0.1-0.7-0.1v-0.4H76V47c-0.1,0-0.3,0.1-0.4,0.1
		c-0.1,0.1-0.2,0.2-0.2,0.5v8.7c0,0.9,0.3,1.6,1,2s1.5,0.6,2.6,0.6c1.1,0,1.9-0.2,2.6-0.6s1-1,1-2v-8.7c0-0.3-0.1-0.4-0.2-0.5
		c-0.1-0.1-0.3-0.1-0.4-0.1v-0.4h6.5V47c-0.3,0-0.5,0.1-0.7,0.1c-0.2,0.1-0.3,0.2-0.3,0.5v7.9c0,1-0.1,1.9-0.4,2.7
		c-0.3,0.9-0.8,1.6-1.4,2.2c-0.6,0.6-1.5,1.1-2.6,1.5c-1.1,0.3-2.4,0.5-4,0.5s-2.9-0.2-4-0.5c-1.1-0.3-1.9-0.8-2.6-1.5
		c-0.6-0.6-1.1-1.4-1.4-2.2c-0.3-0.9-0.4-1.8-0.4-2.7V47.7z"/>
	<path class="st0" d="M94.1,47.7c0-0.3-0.1-0.4-0.3-0.5c-0.2-0.1-0.4-0.1-0.7-0.1v-0.4h10.8c1.3,0,2.5,0.2,3.4,0.6
		c0.9,0.4,1.7,1,2.3,1.7c0.6,0.7,1.1,1.6,1.3,2.5c0.3,1,0.4,2,0.4,3s-0.1,2.1-0.4,3c-0.3,1-0.7,1.8-1.3,2.5
		c-0.6,0.7-1.4,1.3-2.3,1.7c-0.9,0.4-2.1,0.6-3.4,0.6H93.1V62c0.3,0,0.5-0.1,0.7-0.1s0.3-0.2,0.3-0.5V47.7z M101.5,59
		c1.9,0,3.2-0.3,4-1c0.8-0.7,1.2-1.8,1.2-3.5c0-1.7-0.4-2.8-1.2-3.5s-2.2-1-4-1h-2.6V59H101.5z"/>
</g>
<g>
	<path class="st1" d="M21.8,98.1v-2.9h0.8c0.2,0.9,0.5,1.5,1,1.9c0.4,0.4,0.9,0.6,1.4,0.6c0.4,0,0.7-0.1,0.9-0.3
		c0.2-0.2,0.3-0.5,0.3-0.8c0-0.2-0.1-0.4-0.2-0.6c-0.1-0.2-0.5-0.4-1-0.7c-1-0.5-1.6-0.8-2-1.1c-0.3-0.2-0.6-0.5-0.8-0.9
		s-0.3-0.8-0.3-1.2c0-0.7,0.3-1.3,0.8-1.8c0.5-0.5,1.1-0.7,1.8-0.7c0.7,0,1.4,0.2,1.9,0.7c0.1-0.1,0.2-0.3,0.2-0.6h0.7v2.5h-0.7
		c-0.1-0.6-0.4-1-0.7-1.4s-0.8-0.5-1.2-0.5c-0.3,0-0.6,0.1-0.8,0.3s-0.3,0.4-0.3,0.7c0,0.2,0.1,0.4,0.2,0.6c0.1,0.2,0.3,0.3,0.5,0.5
		c0.2,0.1,0.7,0.3,1.4,0.7c0.6,0.3,1.1,0.6,1.4,0.8s0.5,0.5,0.7,0.9c0.2,0.4,0.3,0.7,0.3,1.1c0,0.8-0.3,1.4-0.8,1.9
		c-0.6,0.5-1.2,0.8-2,0.8c-0.4,0-0.9-0.1-1.3-0.3c-0.4-0.2-0.8-0.4-1-0.7c-0.1,0.2-0.2,0.4-0.2,0.7H21.8z"/>
	<path class="st1" d="M32.9,94.1v2.1c0,0.4,0,0.7,0.1,0.8c0,0.1,0.2,0.2,0.4,0.3c0.2,0.1,0.5,0.1,0.9,0.1c0.6,0,1-0.1,1.2-0.2
		s0.5-0.4,0.7-0.7c0.2-0.4,0.4-0.7,0.5-1.1h0.7l-0.1,2.8h-7.9v-0.7h0.2c0.4,0,0.7-0.1,0.8-0.2c0.1-0.2,0.2-0.4,0.2-0.8v-5.1
		c0-0.4-0.1-0.7-0.2-0.8c-0.1-0.2-0.4-0.2-0.8-0.2h-0.2v-0.7h7.3l0.1,2.2h-0.7c-0.1-0.4-0.3-0.7-0.4-0.9s-0.3-0.4-0.5-0.4
		c-0.2-0.1-0.4-0.1-0.8-0.1h-1.6v3h0.8c0.4,0,0.6-0.1,0.8-0.2c0.1-0.1,0.2-0.4,0.2-0.8h0.7v2.9h-0.7c0-0.1,0-0.1,0-0.1
		c0-0.2-0.1-0.5-0.2-0.7s-0.4-0.3-0.8-0.3H32.9z"/>
	<path class="st1" d="M47.4,95v3.2h-0.7c-0.1-0.3-0.2-0.6-0.4-0.8c-0.7,0.7-1.7,1.1-2.8,1.1c-1.3,0-2.4-0.4-3.2-1.3
		c-0.8-0.9-1.2-1.9-1.2-3.1c0-1.2,0.4-2.2,1.2-3.1c0.8-0.9,1.9-1.4,3.3-1.4c1,0,1.9,0.3,2.7,1c0.1-0.2,0.2-0.5,0.3-0.8h0.7l0.1,3.2
		h-0.7c-0.2-0.9-0.5-1.5-1-2c-0.5-0.4-1-0.7-1.7-0.7c-0.7,0-1.3,0.3-1.7,0.9s-0.6,1.5-0.6,2.7c0,0.9,0.1,1.6,0.2,2.1
		c0.1,0.5,0.4,0.9,0.8,1.2c0.4,0.3,0.8,0.4,1.3,0.4c0.6,0,1.2-0.2,1.7-0.7c0.5-0.4,0.8-1.1,1.1-2H47.4z"/>
	<path class="st1" d="M49.3,90.4v-0.7h4.5v0.7h-0.1c-0.4,0-0.7,0.1-0.8,0.2s-0.2,0.4-0.2,0.8v3.4c0,0.6,0.1,1.1,0.2,1.5
		c0.1,0.4,0.3,0.7,0.7,0.9s0.8,0.4,1.2,0.4c0.5,0,1-0.1,1.3-0.4c0.4-0.3,0.6-0.6,0.7-1c0.1-0.4,0.2-0.9,0.2-1.6v-2.9
		c0-0.9-0.4-1.3-1.3-1.3v-0.7h3.2v0.7c-0.2,0-0.4,0.1-0.6,0.2c-0.2,0.1-0.3,0.2-0.4,0.4c-0.1,0.2-0.1,0.4-0.1,0.8v2.9
		c0,0.6,0,1.1-0.1,1.5s-0.3,0.8-0.6,1.1c-0.3,0.4-0.7,0.7-1.2,0.9c-0.5,0.2-1.1,0.3-1.7,0.3c-0.7,0-1.3-0.1-1.8-0.3
		c-0.5-0.2-0.9-0.5-1.2-0.8c-0.3-0.3-0.5-0.7-0.6-1.1s-0.1-0.9-0.1-1.4v-3.4c0-0.4-0.1-0.7-0.2-0.8C50,90.4,49.7,90.4,49.3,90.4z"/>
	<path class="st1" d="M63,94.5v2c0,0.4,0.1,0.7,0.2,0.8c0.1,0.2,0.4,0.2,0.8,0.2h0.2v0.7h-4.6v-0.7h0.2c0.4,0,0.7-0.1,0.8-0.2
		s0.2-0.4,0.2-0.8v-5.1c0-0.4-0.1-0.7-0.2-0.8c-0.1-0.2-0.4-0.2-0.8-0.2h-0.2v-0.7l3.4,0l0.8,0c0.8,0,1.3,0,1.7,0.1
		c0.4,0.1,0.7,0.2,1,0.4c0.3,0.2,0.6,0.5,0.8,0.8s0.3,0.7,0.3,1.1c0,1-0.6,1.7-1.7,2.1c0.3,0.2,0.8,0.8,1.4,1.8
		c0.5,0.8,0.9,1.3,1.1,1.4c0.2,0.2,0.5,0.2,0.7,0.2v0.7h-2.7c-0.2-0.3-0.7-1-1.4-2.2c-0.3-0.6-0.6-1-0.7-1.2
		c-0.1-0.2-0.3-0.3-0.4-0.3C63.8,94.5,63.5,94.5,63,94.5z M63,93.7c0.7,0,1.2,0,1.4-0.1s0.4-0.3,0.6-0.5c0.1-0.2,0.2-0.6,0.2-1
		c0-0.6-0.1-1-0.4-1.3s-0.8-0.3-1.5-0.3c-0.1,0-0.2,0-0.3,0V93.7z"/>
	<path class="st1" d="M73.6,94.1v2.1c0,0.4,0,0.7,0.1,0.8c0,0.1,0.2,0.2,0.4,0.3c0.2,0.1,0.5,0.1,0.9,0.1c0.6,0,1-0.1,1.2-0.2
		s0.5-0.4,0.7-0.7c0.2-0.4,0.4-0.7,0.5-1.1H78L78,98.3h-7.9v-0.7h0.2c0.4,0,0.7-0.1,0.8-0.2c0.1-0.2,0.2-0.4,0.2-0.8v-5.1
		c0-0.4-0.1-0.7-0.2-0.8c-0.1-0.2-0.4-0.2-0.8-0.2h-0.2v-0.7h7.3l0.1,2.2h-0.7c-0.1-0.4-0.3-0.7-0.4-0.9s-0.3-0.4-0.5-0.4
		c-0.2-0.1-0.4-0.1-0.8-0.1h-1.6v3h0.8c0.4,0,0.6-0.1,0.8-0.2c0.1-0.1,0.2-0.4,0.2-0.8H76v2.9h-0.7c0-0.1,0-0.1,0-0.1
		c0-0.2-0.1-0.5-0.2-0.7s-0.4-0.3-0.8-0.3H73.6z"/>
	<path class="st1" d="M79.4,98.3v-0.7c0.5,0,0.8-0.1,0.9-0.2c0.1-0.1,0.2-0.4,0.2-0.8v-5.1c0-0.4-0.1-0.7-0.2-0.8
		c-0.1-0.1-0.4-0.2-0.9-0.2v-0.7l1,0c1,0,1.9-0.1,2.4-0.1c1,0,1.8,0.1,2.4,0.2c0.6,0.1,1.2,0.4,1.8,0.8c0.6,0.4,1,0.9,1.3,1.5
		s0.4,1.3,0.4,2c0,0.8-0.2,1.4-0.5,2c-0.3,0.6-0.7,1.1-1.3,1.4c-0.5,0.4-1.1,0.6-1.7,0.7c-0.6,0.1-1.5,0.1-2.9,0.1H79.4z M82.7,90.3
		v5.9c0,0.4,0,0.6,0.1,0.8s0.1,0.2,0.3,0.3s0.4,0.1,0.7,0.1c0.8,0,1.4-0.3,1.8-0.9c0.4-0.6,0.6-1.5,0.6-2.6c0-0.9-0.1-1.7-0.4-2.2
		c-0.3-0.6-0.7-0.9-1.1-1.1C84.1,90.4,83.5,90.3,82.7,90.3z"/>
</g>
<g>
	<path class="st1" d="M46.7,32.5H46c-0.4,0-0.7,0-1,0.1c-0.2,0.1-0.4,0.3-0.5,0.6c-0.1,0.3-0.2,0.6-0.3,1h-0.7v-2.4h8.6v2.4h-0.7
		c-0.1-0.7-0.3-1.1-0.6-1.3c-0.2-0.2-0.6-0.3-1.2-0.3h-0.7v6.1c0,0.4,0.1,0.7,0.2,0.8c0.1,0.2,0.4,0.2,0.8,0.2h0.2v0.7h-4.7v-0.7
		h0.2c0.4,0,0.7-0.1,0.8-0.2c0.1-0.2,0.2-0.4,0.2-0.8V32.5z"/>
	<path class="st1" d="M57.8,36.2v2.4c0,0.4,0.1,0.7,0.2,0.8s0.4,0.2,0.9,0.2v0.7h-4.5v-0.7c0.5,0,0.8-0.1,0.9-0.2
		c0.1-0.1,0.2-0.4,0.2-0.8v-5.1c0-0.4-0.1-0.7-0.2-0.8s-0.4-0.2-0.9-0.2v-0.7h4.5v0.7c-0.4,0-0.7,0.1-0.9,0.2
		c-0.1,0.1-0.2,0.4-0.2,0.8v1.9h3.5v-1.9c0-0.4-0.1-0.7-0.2-0.8s-0.4-0.2-0.9-0.2v-0.7h4.5v0.7c-0.5,0-0.8,0.1-0.9,0.2
		c-0.2,0.1-0.2,0.4-0.2,0.8v5.1c0,0.4,0.1,0.7,0.2,0.8c0.1,0.1,0.4,0.2,0.9,0.2v0.7h-4.5v-0.7c0.4,0,0.7-0.1,0.9-0.2
		s0.2-0.4,0.2-0.8v-2.4H57.8z"/>
	<path class="st1" d="M70.8,36.2v2.1c0,0.4,0,0.7,0.1,0.8s0.2,0.2,0.4,0.3c0.2,0.1,0.5,0.1,0.9,0.1c0.6,0,1-0.1,1.2-0.2
		c0.3-0.1,0.5-0.4,0.7-0.7c0.2-0.4,0.4-0.7,0.5-1.1h0.7l-0.1,2.8h-7.9v-0.7h0.2c0.4,0,0.7-0.1,0.8-0.2c0.1-0.2,0.2-0.4,0.2-0.8v-5.1
		c0-0.4-0.1-0.7-0.2-0.8c-0.1-0.2-0.4-0.2-0.8-0.2h-0.2v-0.7h7.3l0.1,2.2h-0.7c-0.1-0.4-0.3-0.7-0.4-0.9s-0.3-0.4-0.5-0.4
		s-0.4-0.1-0.8-0.1h-1.6v3h0.8c0.4,0,0.6-0.1,0.8-0.2s0.2-0.4,0.2-0.8h0.7v2.9h-0.7c0-0.1,0-0.1,0-0.1c0-0.2-0.1-0.5-0.2-0.7
		c-0.1-0.2-0.4-0.3-0.8-0.3H70.8z"/>
</g>
<g>
	<path class="st1" d="M5.3,80.5l-2.1-6.8c-0.2-0.6-0.3-1-0.5-1.1c-0.1-0.1-0.4-0.2-0.6-0.2v-0.7H6v0.7c-0.5,0-0.7,0.1-0.7,0.4
		c0,0.2,0,0.4,0.1,0.6l1.2,3.8l1.8-5.5h1l2.2,5.5l1-3.5c0.1-0.3,0.1-0.5,0.1-0.6c0-0.5-0.3-0.7-0.8-0.7v-0.7h2.7v0.7
		c-0.3,0-0.5,0.1-0.7,0.3c-0.2,0.2-0.4,0.7-0.7,1.6l-1.7,6.2h-1l-2.2-5.8l-1.9,5.8H5.3z"/>
	<path class="st1" d="M18.8,76.2v2.1c0,0.4,0,0.7,0.1,0.8c0,0.1,0.2,0.2,0.4,0.3s0.5,0.1,0.9,0.1c0.6,0,1-0.1,1.2-0.2
		c0.3-0.1,0.5-0.4,0.7-0.7c0.2-0.3,0.4-0.7,0.5-1.1h0.7l-0.1,2.8h-7.9v-0.7h0.2c0.4,0,0.7-0.1,0.8-0.2c0.1-0.2,0.2-0.4,0.2-0.8v-5.1
		c0-0.4-0.1-0.7-0.2-0.8c-0.1-0.2-0.4-0.2-0.8-0.2h-0.2v-0.7h7.3l0.1,2.2h-0.7c-0.1-0.4-0.3-0.7-0.4-0.9c-0.2-0.2-0.3-0.4-0.5-0.4
		c-0.2-0.1-0.4-0.1-0.8-0.1h-1.6v3h0.8c0.4,0,0.6-0.1,0.8-0.2c0.1-0.1,0.2-0.4,0.2-0.8h0.7v2.9h-0.7c0-0.1,0-0.1,0-0.1
		c0-0.2-0.1-0.5-0.2-0.7c-0.1-0.2-0.4-0.3-0.8-0.3H18.8z"/>
	<path class="st1" d="M29.8,75.7c0.8,0.2,1.5,0.4,1.9,0.8c0.4,0.4,0.6,0.9,0.6,1.5c0,0.7-0.3,1.2-0.8,1.6c-0.5,0.4-1.4,0.6-2.7,0.6
		h-4.5v-0.7c0.5,0,0.8-0.1,0.9-0.2c0.1-0.1,0.2-0.4,0.2-0.8v-5c0-0.4-0.1-0.7-0.2-0.8c-0.1-0.1-0.4-0.2-0.9-0.2v-0.7l3.3-0.1h0.5
		c1.5,0,2.5,0.2,3,0.6c0.5,0.4,0.8,0.9,0.8,1.5c0,0.5-0.2,0.9-0.5,1.2C31.1,75.3,30.5,75.6,29.8,75.7z M27.7,75.4h0.4
		c0.5,0,0.8-0.1,1-0.3c0.2-0.2,0.3-0.6,0.3-1.1c0-0.4-0.1-0.7-0.2-1c-0.1-0.2-0.3-0.4-0.6-0.5c-0.2-0.1-0.6-0.1-1-0.1V75.4z
		 M27.7,76.1v2.4c0,0.2,0,0.4,0.1,0.5c0,0.1,0.1,0.2,0.3,0.3s0.3,0.1,0.6,0.1c0.4,0,0.7-0.1,0.9-0.4c0.2-0.3,0.3-0.7,0.3-1.3
		c0-0.5-0.1-0.8-0.2-1.1c-0.1-0.3-0.3-0.4-0.5-0.5s-0.6-0.1-1-0.1H27.7z"/>
	<path class="st1" d="M41.5,79.5c-0.9,0.6-1.7,1-2.5,1c-0.7,0-1.3-0.2-1.8-0.7c-0.5-0.5-0.8-1-0.8-1.6c0-1,0.7-1.8,2-2.6
		c-0.4-0.7-0.6-1.3-0.6-1.8c0-0.6,0.2-1.1,0.6-1.4c0.4-0.3,0.9-0.5,1.6-0.5c0.6,0,1.1,0.1,1.4,0.4c0.4,0.3,0.5,0.7,0.5,1.1
		c0,0.8-0.5,1.4-1.4,1.9l1.7,2.3c0.5-0.7,0.7-1.1,0.7-1.4c0-0.3-0.2-0.4-0.6-0.4v-0.7h2.6v0.7c-0.3,0.1-0.6,0.2-0.7,0.3
		c-0.2,0.2-0.4,0.5-0.7,0.9c-0.3,0.5-0.6,0.9-0.8,1.2c0.3,0.4,0.6,0.7,0.8,0.9c0.2,0.2,0.4,0.2,0.6,0.2c0.4,0,0.7-0.3,0.7-0.9h0.7
		c0,0.7-0.2,1.2-0.6,1.5c-0.4,0.3-0.9,0.5-1.4,0.5C42.8,80.5,42.1,80.2,41.5,79.5z M41,79l-2-2.7c-0.4,0.3-0.6,0.6-0.6,1
		c0,0.4,0.2,0.9,0.5,1.3s0.7,0.7,1.2,0.7C40.4,79.3,40.7,79.2,41,79z M40.1,74.7c0.5-0.4,0.8-0.7,0.8-1.1c0-0.3-0.1-0.5-0.2-0.7
		c-0.2-0.2-0.4-0.2-0.6-0.2c-0.2,0-0.3,0.1-0.5,0.2s-0.2,0.3-0.2,0.5C39.4,73.6,39.6,74.1,40.1,74.7z"/>
	<path class="st1" d="M57.8,77v3.2h-0.7c-0.1-0.3-0.2-0.6-0.4-0.8c-0.7,0.7-1.7,1.1-2.8,1.1c-1.3,0-2.4-0.4-3.2-1.3
		c-0.8-0.9-1.2-1.9-1.2-3.1c0-1.2,0.4-2.2,1.2-3.1s1.9-1.4,3.3-1.4c1,0,1.9,0.3,2.7,1c0.1-0.2,0.2-0.5,0.3-0.8h0.7l0.1,3.2H57
		c-0.2-0.9-0.5-1.5-1-2s-1-0.7-1.7-0.7c-0.7,0-1.3,0.3-1.7,0.9C52.2,73.8,52,74.8,52,76c0,0.9,0.1,1.6,0.2,2.1
		c0.1,0.5,0.4,0.9,0.8,1.2c0.4,0.3,0.8,0.4,1.3,0.4c0.6,0,1.2-0.2,1.7-0.7s0.8-1.1,1.1-2H57.8z"/>
	<path class="st1" d="M67.3,77.5l0,2.9h-7.8v-0.7h0.1c0.4,0,0.7-0.1,0.8-0.2c0.1-0.2,0.2-0.4,0.2-0.8v-5.1c0-0.4-0.1-0.7-0.2-0.8
		c-0.1-0.2-0.4-0.2-0.8-0.2h-0.1v-0.7h4.6v0.7h-0.2c-0.4,0-0.7,0.1-0.8,0.2c-0.1,0.2-0.2,0.4-0.2,0.8v4.9c0,0.4,0,0.6,0.1,0.7
		c0,0.1,0.2,0.2,0.3,0.3c0.2,0.1,0.5,0.1,0.9,0.1c0.8,0,1.3-0.2,1.7-0.6s0.6-0.9,0.8-1.5H67.3z"/>
	<path class="st1" d="M68.8,72.4v-0.7h4.5v0.7h-0.1c-0.4,0-0.7,0.1-0.8,0.2c-0.1,0.2-0.2,0.4-0.2,0.8v5.1c0,0.4,0.1,0.7,0.2,0.8
		s0.4,0.2,0.8,0.2h0.1v0.7h-4.5v-0.7c0.5,0,0.8-0.1,0.9-0.2c0.1-0.1,0.2-0.4,0.2-0.8v-5.1c0-0.4-0.1-0.7-0.2-0.8
		S69.3,72.4,68.8,72.4z"/>
	<path class="st1" d="M79.9,80.3l-3.2-6.7v4.4c0,0.4,0,0.7,0.1,0.9s0.2,0.3,0.4,0.5c0.2,0.1,0.4,0.2,0.7,0.2v0.7h-3.1v-0.7
		c0.3,0,0.5-0.1,0.7-0.2s0.3-0.3,0.4-0.5s0.1-0.5,0.1-0.9v-4.5c0-0.4-0.1-0.7-0.2-0.9c-0.2-0.1-0.5-0.2-0.9-0.2v-0.7h3.4l2.6,5.6
		l2.7-5.6H87v0.7h-0.2c-0.4,0-0.7,0.1-0.8,0.2s-0.2,0.4-0.2,0.8v5.1c0,0.4,0.1,0.7,0.2,0.8c0.1,0.2,0.4,0.2,0.8,0.2H87v0.7h-4.7
		v-0.7h0.2c0.4,0,0.7-0.1,0.8-0.2c0.1-0.2,0.2-0.4,0.2-0.8v-5l-3.2,6.8H79.9z"/>
	<path class="st1" d="M89.9,78l-0.2,0.4c-0.1,0.3-0.2,0.5-0.2,0.6c0,0.2,0.1,0.4,0.2,0.4s0.4,0.1,0.7,0.1v0.7h-2.8v-0.7
		c0.5,0,1-0.5,1.4-1.4l2.6-6.7h0.7l2.7,6.7c0.3,0.7,0.5,1.1,0.7,1.2c0.2,0.1,0.4,0.2,0.6,0.2v0.7h-4.3v-0.7c0.4,0,0.6,0,0.7-0.1
		c0.1-0.1,0.1-0.2,0.1-0.3c0-0.1,0-0.2-0.1-0.4l-0.1-0.2L92.5,78H89.9z M90.1,77.3h2.1l-1.1-2.6L90.1,77.3z"/>
	<path class="st1" d="M99.2,72.5h-0.7c-0.4,0-0.7,0-1,0.1c-0.2,0.1-0.4,0.3-0.5,0.6c-0.1,0.3-0.2,0.6-0.3,1h-0.7v-2.4h8.6v2.4H104
		c-0.1-0.7-0.3-1.1-0.6-1.3c-0.2-0.2-0.6-0.3-1.2-0.3h-0.7v6.1c0,0.4,0.1,0.7,0.2,0.8s0.4,0.2,0.8,0.2h0.2v0.7H98v-0.7h0.2
		c0.4,0,0.7-0.1,0.8-0.2c0.1-0.2,0.2-0.4,0.2-0.8V72.5z"/>
	<path class="st1" d="M109.1,76.2v2.1c0,0.4,0,0.7,0.1,0.8c0,0.1,0.2,0.2,0.4,0.3c0.2,0.1,0.5,0.1,0.9,0.1c0.6,0,1-0.1,1.2-0.2
		c0.3-0.1,0.5-0.4,0.7-0.7c0.2-0.3,0.4-0.7,0.5-1.1h0.7l-0.1,2.8h-7.9v-0.7h0.2c0.4,0,0.7-0.1,0.8-0.2c0.1-0.2,0.2-0.4,0.2-0.8v-5.1
		c0-0.4-0.1-0.7-0.2-0.8c-0.1-0.2-0.4-0.2-0.8-0.2h-0.2v-0.7h7.3l0.1,2.2h-0.7c-0.1-0.4-0.3-0.7-0.4-0.9c-0.2-0.2-0.3-0.4-0.5-0.4
		c-0.2-0.1-0.4-0.1-0.8-0.1h-1.6v3h0.8c0.4,0,0.6-0.1,0.8-0.2c0.1-0.1,0.2-0.4,0.2-0.8h0.7v2.9h-0.7c0-0.1,0-0.1,0-0.1
		c0-0.2-0.1-0.5-0.2-0.7c-0.1-0.2-0.4-0.3-0.8-0.3H109.1z"/>
</g>
<g>
	<rect x="79.5" y="35.3" class="st1" width="31.9" height="1"/>
</g>
<g>
	<rect x="5.5" y="35.3" class="st1" width="31.9" height="1"/>
</g>
</svg>
