<?xml version="1.0" encoding="utf-8"?>
<!-- Generator: Adobe Illustrator 25.4.1, SVG Export Plug-In . SVG Version: 6.00 Build 0)  -->
<svg version="1.1" id="Layer_1" xmlns="http://www.w3.org/2000/svg" xmlns:xlink="http://www.w3.org/1999/xlink" x="0px" y="0px"
	 viewBox="0 0 187.1 188.7" style="enable-background:new 0 0 187.1 188.7;" xml:space="preserve">
<style type="text/css">
	.st0{fill:#131A3E;}
	.st1{fill:#F4D010;}
	.st2{fill:none;}
	.st3{fill:#FFFFFF;}
</style>
<path class="st0" d="M81.5,90.5l12-8.8l12.1,8.7l-1.3,3.9h82.4c0-51.2-41.5-92.7-92.7-92.7C42.9,1.6,1.4,43.1,1.4,94.3h81.4
	L81.5,90.5z"/>
<path class="st1" d="M148.5,94.3l5.2-16.4l-3.4,1.1l-4.9,15.3h-41.1l-3.3,10.5l-14.9,0.1l-3.5-10.5H41.6l-4.9-14.9l-3.4-1.1l5.3,16
	H1.4c0,51.2,41.5,92.7,92.7,92.7c51.2,0,92.7-41.5,92.7-92.7H148.5z"/>
<polygon class="st2" points="186.1,64.5 151.7,172.3 38.6,172.9 3,65.5 94.2,-1.5 "/>
<polygon class="st2" points="121.4,84.3 111.1,116.7 77.1,116.9 66.4,84.5 93.8,64.4 "/>
<line class="st2" x1="85.9" y1="105.3" x2="38.6" y2="172.9"/>
<line class="st2" x1="3" y1="65.5" x2="80.9" y2="90.4"/>
<line class="st2" x1="94.2" y1="-1.5" x2="93.6" y2="81.1"/>
<line class="st2" x1="106.3" y1="90.3" x2="186.1" y2="64.5"/>
<line class="st2" x1="101.5" y1="105.2" x2="151.7" y2="172.3"/>
<polygon class="st3" points="33.3,78.3 36.6,79.4 57.1,141.3 74.1,116.5 64.7,88.5 4.1,68.8 37.6,169.9 55.1,144.3 "/>
<g>
	<polygon class="st3" points="126.7,143.8 108.6,119.5 79.7,119.5 62.3,144.2 	"/>
	<polygon class="st3" points="60.3,147 42,172.9 147.9,172.2 128.8,146.7 	"/>
</g>
<g>
	<polygon class="st3" points="150.4,79 153.7,77.9 123.1,88 113.7,117.2 130.9,140 	"/>
	<polygon class="st3" points="153.7,77.9 133,142.8 152.7,169 185.1,67.6 	"/>
</g>
<g>
	<polygon class="st3" points="64.1,82.3 91.4,62.4 91.4,35.2 38.3,74.2 	"/>
	<polygon class="st3" points="91.4,31.6 91.4,0.5 5.3,63.8 35,73.1 	"/>
</g>
<g>
	<polygon class="st3" points="151.7,72.2 183.1,62.4 97.1,0.5 97.1,33 	"/>
	<polygon class="st3" points="97.1,62.9 123.1,81.1 148.2,73.3 97.1,36.5 	"/>
</g>
</svg>
