<?xml version="1.0" encoding="utf-8"?>
<!-- Generator: Adobe Illustrator 25.4.1, SVG Export Plug-In . SVG Version: 6.00 Build 0)  -->
<svg version="1.1" id="Layer_1" xmlns="http://www.w3.org/2000/svg" xmlns:xlink="http://www.w3.org/1999/xlink" x="0px" y="0px"
	 viewBox="0 0 87 119.7" style="enable-background:new 0 0 87 119.7;" xml:space="preserve">
<style type="text/css">
	.st0{fill:#F5D109;}
	.st1{fill:none;stroke:#F5D109;stroke-width:2;stroke-miterlimit:10;}
</style>
<g>
	<g>
		<path class="st0" d="M56.6,3.3L51.7,31l1.7,3.8l0.1,2.4l1.7,0.1l-0.1-2.7l0.7-3.5l2.4-27.9l-0.4-1.6C57.1,2,56.6,3.3,56.6,3.3z"/>
	</g>
	<g>
		<path class="st0" d="M50.3,39.8L47,41.2L22.5,54.6l-1.1,1.2c0.7,0.3,2.1,0,2.1,0l25.8-11.2l2.2-3.5l2-1.4l-0.9-1.5L50.3,39.8z"/>
	</g>
	<g>
		<path class="st0" d="M62.1,40.9l-4.1-0.7L56,39l-1,1.4l2.3,1.4l2.6,2.5l22,17.3l1.6,0.5c0-0.8-0.8-1.9-0.8-1.9L62.1,40.9z"/>
	</g>
	<g>
		<path class="st0" d="M53.3,36.5c-1.3,0.3-2,1.7-1.7,2.9c0.3,1.3,1.7,2,2.9,1.7c1.3-0.3,2-1.7,1.7-2.9
			C55.9,36.9,54.6,36.2,53.3,36.5z"/>
	</g>
	<g>
		<polygon class="st0" points="52.8,41 50.6,116.6 57,116.6 54.8,41 		"/>
	</g>
</g>
<g>
	<g>
		<g>
			<path class="st0" d="M42.3,66l-19.1-3.6l-2.6,1.1l-1.7,0.1l-0.1,1.2l1.8,0l2.4,0.5l19.2,1.8l1.1-0.3C43.2,66.4,42.3,66,42.3,66z"
				/>
		</g>
		<g>
			<path class="st0" d="M16.2,59.1L7.2,42.1l-0.9-0.8c-0.2,0.5,0,1.4,0,1.4l7.5,17.9l2.4,1.5l1,1.4l1-0.6l-1-1.5L16.2,59.1z"/>
		</g>
		<g>
			<path class="st0" d="M15.7,66.2L14,67.9L1.9,83l-0.4,1.1c0.5,0,1.3-0.5,1.3-0.5l13.5-14l0.5-2.8l0.9-1.4l-1-0.7L15.7,66.2z"/>
		</g>
		<g>
			<path class="st0" d="M17.4,62.3c-0.9,0.2-1.4,1.1-1.2,2c0.2,0.9,1.1,1.4,2,1.2c0.9-0.2,1.4-1.1,1.2-2
				C19.2,62.6,18.3,62.1,17.4,62.3z"/>
		</g>
	</g>
	<g>
		<polygon class="st0" points="16.9,64.5 15.3,116.6 19.7,116.6 18.2,64.5 		"/>
	</g>
</g>
<line class="st1" x1="15.3" y1="116.6" x2="57" y2="116.6"/>
</svg>
