<?xml version="1.0" encoding="utf-8"?>
<!-- Generator: Adobe Illustrator 25.4.1, SVG Export Plug-In . SVG Version: 6.00 Build 0)  -->
<svg version="1.1" id="Layer_1" xmlns="http://www.w3.org/2000/svg" xmlns:xlink="http://www.w3.org/1999/xlink" x="0px" y="0px"
	 viewBox="0 0 73.3 73.5" style="enable-background:new 0 0 73.3 73.5;" xml:space="preserve">
<style type="text/css">
	.st0{fill:#F5D109;}
</style>
<g>
	<g>
		<g>
			<path class="st0" d="M46.2,6.5c-2-3.4-5.5-5.5-9.4-5.5c-3.9,0-7.5,2-9.4,5.5l-5.8,10.1c-0.5,0.8-0.2,1.8,0.6,2.3
				c0.8,0.5,1.8,0.2,2.3-0.6l5.8-10.1c1.4-2.4,3.8-3.8,6.5-3.8c2.7,0,5.2,1.4,6.5,3.8l13,22.6c0.3,0.5,0.9,0.8,1.5,0.8
				c0.3,0,0.6-0.1,0.8-0.2c0.8-0.5,1.1-1.5,0.6-2.3L46.2,6.5z"/>
		</g>
		<polygon class="st0" points="49.8,31 55.9,34.8 62.1,38.6 62.3,31.4 62.5,24.1 56.1,27.6 		"/>
	</g>
	<g>
		<g>
			<path class="st0" d="M64.7,39.9c-0.5-0.8-1.5-1.1-2.3-0.6c-0.8,0.5-1.1,1.5-0.6,2.3l5.9,10c1.4,2.3,1.4,5.2,0.1,7.5
				C66.4,61.5,64,63,61.2,63l-26.1,0.2c-0.9,0-1.7,0.8-1.7,1.7c0,0.9,0.8,1.7,1.7,1.7c0,0,0,0,0,0l26.1-0.2c3.9,0,7.5-2.1,9.4-5.5
				c1.9-3.4,1.9-7.5-0.1-10.9L64.7,39.9z"/>
		</g>
		<polygon class="st0" points="25.5,64.4 31.7,68.1 37.9,71.9 38.1,64.6 38.2,57.4 31.9,60.9 		"/>
	</g>
	<g>
		<g>
			<path class="st0" d="M23.2,63l-11.6-0.1c-2.7,0-5.1-1.5-6.5-3.8c-1.3-2.4-1.3-5.2,0.1-7.5L18.4,29c0.5-0.8,0.2-1.8-0.6-2.3
				c-0.8-0.5-1.8-0.2-2.3,0.6L2.2,49.8c-2,3.4-2,7.5-0.1,10.9c1.9,3.4,5.5,5.5,9.4,5.5l11.6,0.1c0,0,0,0,0,0c0.9,0,1.7-0.7,1.7-1.7
				C24.9,63.7,24.1,63,23.2,63z"/>
		</g>
		<polygon class="st0" points="9.5,26.9 15.7,30.8 21.8,34.6 22,27.4 22.3,20.2 15.9,23.5 		"/>
	</g>
</g>
</svg>
