<?xml version="1.0" encoding="utf-8"?>
<!-- Generator: Adobe Illustrator 25.4.1, SVG Export Plug-In . SVG Version: 6.00 Build 0)  -->
<svg version="1.1" id="Layer_1" xmlns="http://www.w3.org/2000/svg" xmlns:xlink="http://www.w3.org/1999/xlink" x="0px" y="0px"
	 viewBox="0 0 89.4 90" style="enable-background:new 0 0 89.4 90;" xml:space="preserve">
<style type="text/css">
	.st0{fill:#F5D109;}
</style>
<g>
	<g>
		<path class="st0" d="M44.6,22.4C32.1,22.4,22,32.6,22,45c0,12.5,10.1,22.6,22.6,22.6S67.1,57.5,67.1,45
			C67.1,32.6,57,22.4,44.6,22.4z M44.6,62.9c-9.8,0-17.8-8-17.8-17.8c0-9.8,8-17.8,17.8-17.8c9.8,0,17.8,8,17.8,17.8
			C62.4,54.9,54.4,62.9,44.6,62.9z"/>
	</g>
	<g>
		<g>
			<path class="st0" d="M44.6,1c-1.3,0-2.4,1.1-2.4,2.4v7.5c0,1.3,1.1,2.4,2.4,2.4c1.3,0,2.4-1.1,2.4-2.4V3.4
				C46.9,2.1,45.9,1,44.6,1z"/>
		</g>
		<g>
			<path class="st0" d="M44.6,76.8c-1.3,0-2.4,1.1-2.4,2.4v7.5c0,1.3,1.1,2.4,2.4,2.4c1.3,0,2.4-1.1,2.4-2.4v-7.5
				C46.9,77.8,45.9,76.8,44.6,76.8z"/>
		</g>
	</g>
	<g>
		<g>
			<path class="st0" d="M86.2,42.7h-7.5c-1.3,0-2.4,1.1-2.4,2.4c0,1.3,1.1,2.4,2.4,2.4h7.5c1.3,0,2.4-1.1,2.4-2.4
				C88.6,43.7,87.5,42.7,86.2,42.7z"/>
		</g>
		<g>
			<path class="st0" d="M10.4,42.7H2.9c-1.3,0-2.4,1.1-2.4,2.4c0,1.3,1.1,2.4,2.4,2.4h7.5c1.3,0,2.4-1.1,2.4-2.4
				C12.8,43.7,11.7,42.7,10.4,42.7z"/>
		</g>
	</g>
	<g>
		<g>
			<path class="st0" d="M72.3,13.9L67,19.2c-0.9,0.9-0.9,2.4,0,3.4c0.5,0.5,1.1,0.7,1.7,0.7c0.6,0,1.2-0.2,1.7-0.7l5.3-5.3
				c0.9-0.9,0.9-2.4,0-3.4C74.7,13,73.2,13,72.3,13.9z"/>
		</g>
		<g>
			<path class="st0" d="M18.8,67.5l-5.3,5.3c-0.9,0.9-0.9,2.4,0,3.4c0.5,0.5,1.1,0.7,1.7,0.7c0.6,0,1.2-0.2,1.7-0.7l5.3-5.3
				c0.9-0.9,0.9-2.4,0-3.4C21.2,66.6,19.7,66.6,18.8,67.5z"/>
		</g>
	</g>
	<g>
		<g>
			<path class="st0" d="M70.3,67.5c-0.9-0.9-2.4-0.9-3.4,0c-0.9,0.9-0.9,2.4,0,3.4l5.3,5.3c0.5,0.5,1.1,0.7,1.7,0.7
				c0.6,0,1.2-0.2,1.7-0.7c0.9-0.9,0.9-2.4,0-3.4L70.3,67.5z"/>
		</g>
		<g>
			<path class="st0" d="M16.8,13.9c-0.9-0.9-2.4-0.9-3.4,0c-0.9,0.9-0.9,2.4,0,3.4l5.3,5.3c0.5,0.5,1.1,0.7,1.7,0.7
				c0.6,0,1.2-0.2,1.7-0.7c0.9-0.9,0.9-2.4,0-3.4L16.8,13.9z"/>
		</g>
	</g>
</g>
</svg>
