<?xml version="1.0" encoding="utf-8"?>
<!-- Generator: Adobe Illustrator 25.4.1, SVG Export Plug-In . SVG Version: 6.00 Build 0)  -->
<svg version="1.1" id="Layer_1" xmlns="http://www.w3.org/2000/svg" xmlns:xlink="http://www.w3.org/1999/xlink" x="0px" y="0px"
	 viewBox="0 0 119.53 120.28" style="enable-background:new 0 0 119.53 120.28;" xml:space="preserve">
<style type="text/css">
	.st0{fill:#F5D109;}
	.st1{fill:#141B3F;}
</style>
<circle class="st0" cx="59.92" cy="60.24" r="59.08"/>
<path class="st1" d="M59.97,3.33c-31.48,0-57,25.52-57,57s25.52,57,57,57c31.48,0,57-25.52,57-57S91.45,3.33,59.97,3.33z
	 M92.8,41.42h-1.87c-0.67-3.88-1.58-6.67-2.73-8.4c-1.16-1.72-2.4-2.78-3.73-3.17c-1.33-0.39-3.6-0.59-6.81-0.59h-9.46v11.49
	c-0.36-0.01-0.72-0.02-1.08-0.02c-2.57,0-5.03,0.27-7.38,0.79V29.27h-8.72c-3.79,0-6.33,0.18-7.64,0.54
	c-1.3,0.36-2.52,1.45-3.67,3.28c-0.12,0.19-0.23,0.39-0.35,0.6c-0.97,1.81-1.73,4.39-2.28,7.73h-2l0.3-14.14h3.93h53.16L92.8,41.42z
	 M79.2,30.75c-0.59,2.67-1.94,5.03-4.08,7.08c-1.3,1.25-2.88,2.27-4.72,3.11c-0.29-0.03-0.56-0.08-0.86-0.1V30.67h7.77
	C77.97,30.67,78.59,30.7,79.2,30.75z M55.51,41.99c0.38-0.02,0.74-0.05,1.11-0.08v0.49c-0.78,0.26-1.56,0.55-2.32,0.88
	c-0.79,0.34-1.55,0.72-2.3,1.11c-0.33-0.03-0.68-0.05-1.06-0.05H48.5v2.2c-1.54,1.1-2.97,2.33-4.28,3.7
	c-1.79,1.87-3.31,3.94-4.58,6.19l-0.02-20.84c0.61-2.59,2.74-4.1,4.24-4.61c1.65-0.56,3.2-0.58,4.64-0.52v11.81
	C50.76,42.2,53.1,42.11,55.51,41.99z M30.34,12.62l8.77-0.45c5.84-0.27,10.48-0.41,13.92-0.41c5.84,0,10.6,0.54,14.26,1.63
	c3.66,1.08,6.62,2.86,8.88,5.33c1.82,2,2.9,4.31,3.25,6.94h-9.92c-0.36-3.09-1.38-5.67-3.07-7.7c-2.15-2.59-6.85-3.89-14.08-3.89
	c-1.12,0-2.4,0.06-3.84,0.18v11.41h-8.87c-0.04-3.61-0.17-6.02-0.4-7.21c-0.27-1.42-0.87-2.39-1.81-2.94
	c-0.93-0.54-2.95-0.81-6.05-0.81h-1.04V12.62z M29.89,73.89v-2.08h1.99c1.44,0,2.63-0.1,3.59-0.31c-0.01,0.41-0.03,0.82-0.03,1.23
	c0,0.39,0.02,0.77,0.03,1.15H29.89z M92.3,103.13h-1.94c-0.54-2.44-1.52-4.59-2.94-6.46c-5.39,6.08-12.28,9.13-20.65,9.13
	c-8.86,0-16.09-2.8-21.71-8.4c-5.62-5.6-8.43-13.01-8.43-22.23c0-6.06,1.29-11.76,3.89-17.1c2.59-5.35,6.21-9.32,10.84-11.91
	c4.64-2.59,9.73-3.89,15.27-3.89c4.58,0,8.73,0.94,12.45,2.82s6.5,3.97,8.34,6.26c1.29-2.56,2.08-5.21,2.35-7.95h1.99l0.54,23.23
	h-1.94c-1.36-8.25-4.12-13.99-8.29-17.22s-8.88-4.83-14.12-4.83c-6.42,0-11.52,2.61-15.3,7.82c-3.78,5.21-5.67,12.67-5.67,22.37
	c0,9.19,2.06,16.23,6.19,21.12c4.13,4.9,9.26,7.34,15.41,7.34c3.28,0,6.64-0.8,10.08-2.39c3.43-1.6,6.15-4.3,8.16-8.11
	c2-3.81,3.19-7.49,3.55-11.05h1.94V103.13z M49.19,84.12h3.04c2.52,0,4.26-0.32,5.23-0.95c0.97-0.64,1.59-1.63,1.87-2.97
	c0.21-1.04,0.34-3.14,0.39-6.3h-0.02v-2.08h0.04c0-0.34,0-0.66,0-1.01V47.97c2.51-1.5,5.3-2.26,8.37-2.26c0.03,0,0.06,0,0.09,0V70.8
	c0,4.6,0.11,7.62,0.33,9.07c0.22,1.45,0.8,2.52,1.76,3.21c0.95,0.69,2.75,1.04,5.38,1.04h2.86v2H49.19V84.12z M48.48,73.89
	c-0.05-4.43,0.61-10.5,1.79-13.65c0.04,2.87,0.41,6.08,0.58,7.17c0.23,1.49,0.83,2.6,1.81,3.32c0.96,0.71,2.78,1.07,5.45,1.08v2.08
	h-1.48h-6.49H48.48z M94.82,73.89H78.33c-2.11-1.48-5.05-4.71-8.78-9.66V50.16c1.49,1.79,3.14,3.9,4.94,6.33
	c4.64,6.24,8.28,10.32,10.93,12.25c2.65,1.93,5.78,2.95,9.4,3.07V73.89z"/>
</svg>
