<?xml version="1.0" encoding="utf-8"?>
<!-- Generator: Adobe Illustrator 25.4.1, SVG Export Plug-In . SVG Version: 6.00 Build 0)  -->
<svg version="1.1" id="Layer_1" xmlns="http://www.w3.org/2000/svg" xmlns:xlink="http://www.w3.org/1999/xlink" x="0px" y="0px"
	 viewBox="0 0 220.7 322.5" style="enable-background:new 0 0 220.7 322.5;" xml:space="preserve">
<style type="text/css">
	.st0{fill:#F5D109;}
</style>
<g>
	<path class="st0" d="M72.4,63.1h29.1V104c7.8-1.7,16-2.6,24.6-2.6c1.2,0,2.4,0,3.6,0.1V63.1h31.5c10.7,0,18.3,0.7,22.7,2
		c4.4,1.3,8.6,4.8,12.4,10.6c3.9,5.7,6.9,15.1,9.1,28h6.2l-1-47.2H33.5H20.3l-1,47.2H26c1.8-11.1,4.3-19.7,7.6-25.8
		c0.4-0.7,0.8-1.4,1.2-2c3.8-6.1,7.9-9.7,12.2-10.9C51.3,63.7,59.8,63.1,72.4,63.1z"/>
	<path class="st0" d="M136.6,242.5c-3.2-2.3-5.1-5.9-5.9-10.7c-0.7-4.8-1.1-14.9-1.1-30.2v-83.6c-0.1,0-0.2,0-0.3,0
		c-10.2,0-19.5,2.5-27.9,7.5v76.1c0,16.4-0.5,26.8-1.4,31.3c-0.9,4.5-3,7.8-6.2,9.9c-3.2,2.1-9,3.2-17.4,3.2H66.3v6.7h97.9V246h-9.5
		C145.8,246,139.8,244.8,136.6,242.5z"/>
</g>
<g>
	<path class="st0" d="M203.6,237.8h6.5v71.6h-6.5c-1.8-8.1-5.1-15.3-9.8-21.5c-18,20.3-41,30.4-68.9,30.4c-29.5,0-53.7-9.3-72.4-28
		s-28.1-43.4-28.1-74.1c0-20.2,4.3-39.2,13-57c8.6-17.8,20.7-31.1,36.1-39.7c15.5-8.6,32.4-13,50.9-13c15.3,0,29.1,3.1,41.5,9.4
		c12.4,6.3,21.7,13.2,27.8,20.9c4.3-8.5,6.9-17.4,7.8-26.5h6.6l1.8,77.5h-6.5c-4.5-27.5-13.7-46.7-27.6-57.4
		c-13.9-10.8-29.6-16.1-47.1-16.1c-21.4,0-38.4,8.7-51,26.1S59,182.4,59,214.8c0,30.6,6.9,54.1,20.6,70.4
		c13.8,16.3,30.9,24.5,51.4,24.5c10.9,0,22.1-2.7,33.6-8c11.4-5.3,20.5-14.3,27.2-27C198.5,261.9,202.4,249.7,203.6,237.8z"/>
</g>
<g>
	<path class="st0" d="M64,113.3h8.1c1.3,0,2.4,0.1,3.5,0.2c2.5-1.3,5-2.6,7.7-3.7c2.5-1.1,5.1-2,7.7-2.9v-1.6
		c-1.2,0.1-2.4,0.2-3.7,0.3c-8,0.4-15.8,0.7-23.3,0.9V67c-4.8-0.2-10-0.2-15.5,1.7c-5,1.7-12.1,6.7-14.1,15.4l0.1,69.5
		c4.2-7.5,9.3-14.4,15.3-20.6c4.4-4.6,9.1-8.7,14.3-12.3L64,113.3L64,113.3z"/>
	<path class="st0" d="M134.2,101.7c1,0.1,1.9,0.2,2.9,0.3c6.1-2.8,11.4-6.2,15.7-10.4c7.1-6.8,11.6-14.7,13.6-23.6
		c-2-0.2-4.1-0.3-6.3-0.3h-25.9L134.2,101.7L134.2,101.7z"/>
	<path class="st0" d="M20.6,203.9c-3.2,0.7-7.1,1-12,1H2v6.9h18.6c0-1.3-0.1-2.5-0.1-3.8C20.5,206.6,20.5,205.3,20.6,203.9z"/>
	<path class="st0" d="M187.2,194.7c-8.8-6.4-21-20-36.4-40.9c-6-8.1-11.5-15.2-16.5-21.1v46.9c12.5,16.5,22.2,27.3,29.3,32.2h55
		v-6.9C206.4,204.5,196,201.1,187.2,194.7z"/>
	<path class="st0" d="M156.3,27.9c-7.5-8.2-17.4-14.2-29.6-17.8c-12.2-3.6-28-5.4-47.5-5.4c-11.4,0-26.9,0.5-46.4,1.4L3.5,7.6v6.9H7
		c10.3,0,17.1,0.9,20.2,2.7c3.1,1.8,5.1,5.1,6,9.8c0.8,4,1.2,12,1.3,24h29.6V13c4.8-0.4,9.1-0.6,12.8-0.6c24.1,0,39.7,4.3,47,13
		c5.6,6.8,9,15.4,10.2,25.7h33.1C165.9,42.3,162.4,34.5,156.3,27.9z"/>
	<rect x="101.4" y="204.9" class="st0" width="5.1" height="6.9"/>
	<path class="st0" d="M71.9,190.2c-0.6-3.6-1.8-14.3-1.9-23.9c-3.9,10.5-6.1,30.7-6,45.5h5.5h21.6H96v-6.9c-8.9-0.1-15-1.3-18.2-3.6
		C74.6,198.9,72.6,195.2,71.9,190.2z"/>
</g>
</svg>
